<svg id="Слой_1" data-name="Слой 1" xmlns="http://www.w3.org/2000/svg" viewBox="0 0 583 690.33"><defs><style>.cls-1{fill:#73f5ff;opacity:0.64;}</style></defs><title>5490 красный ghhhfffff</title><polygon class="cls-1" points="436.5 670.33 425.67 676.5 412 678.17 356 689.5 340.5 690.33 296.67 688.83 250.5 682.17 238.17 676 66.67 649.5 62.67 649.5 56.83 651.5 39.67 649.5 14 643.33 11.33 640.5 5.5 624 4.67 619 4.67 610.83 2.83 561 3.83 557.17 9 561.17 17.83 563.17 28.33 565.17 36.83 566 38.17 561.67 37.83 554 36.5 529.67 33 524 18.5 520.83 9.67 518.83 3.67 513.67 2.83 506.67 10.17 499.17 16.5 497.67 16.5 482.83 7 479.67 2.17 476.5 0 474.67 0 460.33 0 418.17 1 410.17 3.67 406.67 10.5 404.83 11.17 401 8.67 397.17 13.67 344.5 30.83 345.67 98.67 346.67 224.17 345.67 264.33 345.33 306.33 343.33 338.17 339.17 340.92 301.58 343.67 269.67 346.58 239.42 349.33 208.5 352.08 184 353.42 175.04 339.17 162.79 343.54 137.42 339.92 133.79 329.04 131.92 304.54 132.42 286.6 135.98 244.17 138.98 192.1 144.67 138.23 150.1 92.6 154.35 50.17 160.42 48.1 156.48 60 125.17 67 108.83 77 97.17 85.33 90.83 106 85.5 130 80.17 149.67 76.5 159.67 74.5 176.33 71.83 174 67.17 185 58.83 206.67 51.17 240.67 41.17 270 34.83 302.67 27.5 339.67 21.17 378.33 15.83 410.17 11.17 456.67 6.33 492.67 2.83 547.5 0 566.33 0 570.67 3.83 570.67 64.33 514.33 60.33 451 56.33 384.17 55 462.17 69.33 529 84.83 535.67 91.17 539.17 98.67 545.17 124.17 552.17 163.17 555.67 177.67 552.17 180.67 558.17 217.67 564.17 287.67 566.67 363.17 566.67 409.17 580.33 422.67 581.42 448.75 580.33 450.75 581.42 457.5 583 502.5 553.92 507.25 542.17 495.42 532.42 489.92 514.67 488.17 499.42 492.17 485.17 501.17 475.42 511.92 463.67 529.67 460.42 531.17 434.42 534.67 429.42 534.67 428.92 544.92 429.92 547.67 457.17 545.17 457.42 548.67 454.17 557.42 448.92 577.42 444.17 602.92 442.67 622.17 440.92 641.42 439.92 653.92 438.67 663.92 436.5 670.33"/></svg>